<mxfile host="app.diagrams.net" agent="Mozilla/5.0 (Windows NT 10.0; Win64; x64) AppleWebKit/537.36 (KHTML, like Gecko) Chrome/137.0.0.0 Safari/537.36" version="27.1.4">
  <diagram name="Página-1" id="_pBhAU1H5xWY1ATLEpE2">
    <mxGraphModel dx="1246" dy="636" grid="1" gridSize="10" guides="1" tooltips="1" connect="1" arrows="1" fold="1" page="1" pageScale="1" pageWidth="827" pageHeight="1169" math="0" shadow="0">
      <root>
        <mxCell id="0" />
        <mxCell id="1" parent="0" />
        <mxCell id="4moywfV-kU5STPwCgtIo-27" value="CASO DE USO - Usuario" style="shape=umlFrame;whiteSpace=wrap;html=1;pointerEvents=0;width=200;height=30;" parent="1" vertex="1">
          <mxGeometry x="80" y="10" width="690" height="580" as="geometry" />
        </mxCell>
        <mxCell id="iITVqaLfuLyiolPG-tzr-21" style="edgeStyle=orthogonalEdgeStyle;rounded=0;orthogonalLoop=1;jettySize=auto;html=1;entryX=0;entryY=0.5;entryDx=0;entryDy=0;" edge="1" parent="1" source="iITVqaLfuLyiolPG-tzr-28" target="iITVqaLfuLyiolPG-tzr-29">
          <mxGeometry relative="1" as="geometry" />
        </mxCell>
        <mxCell id="iITVqaLfuLyiolPG-tzr-22" style="edgeStyle=orthogonalEdgeStyle;rounded=0;orthogonalLoop=1;jettySize=auto;html=1;entryX=0;entryY=0.5;entryDx=0;entryDy=0;" edge="1" parent="1" source="iITVqaLfuLyiolPG-tzr-28" target="iITVqaLfuLyiolPG-tzr-30">
          <mxGeometry relative="1" as="geometry" />
        </mxCell>
        <mxCell id="iITVqaLfuLyiolPG-tzr-23" style="edgeStyle=orthogonalEdgeStyle;rounded=0;orthogonalLoop=1;jettySize=auto;html=1;entryX=0;entryY=0.5;entryDx=0;entryDy=0;" edge="1" parent="1" source="iITVqaLfuLyiolPG-tzr-28" target="iITVqaLfuLyiolPG-tzr-31">
          <mxGeometry relative="1" as="geometry" />
        </mxCell>
        <mxCell id="iITVqaLfuLyiolPG-tzr-24" value="" style="edgeStyle=orthogonalEdgeStyle;rounded=0;orthogonalLoop=1;jettySize=auto;html=1;" edge="1" parent="1" target="iITVqaLfuLyiolPG-tzr-33">
          <mxGeometry relative="1" as="geometry">
            <mxPoint x="220" y="330" as="sourcePoint" />
          </mxGeometry>
        </mxCell>
        <mxCell id="iITVqaLfuLyiolPG-tzr-25" style="edgeStyle=orthogonalEdgeStyle;rounded=0;orthogonalLoop=1;jettySize=auto;html=1;entryX=0;entryY=0.5;entryDx=0;entryDy=0;" edge="1" parent="1" source="iITVqaLfuLyiolPG-tzr-28" target="iITVqaLfuLyiolPG-tzr-39">
          <mxGeometry relative="1" as="geometry" />
        </mxCell>
        <mxCell id="iITVqaLfuLyiolPG-tzr-26" style="edgeStyle=orthogonalEdgeStyle;rounded=0;orthogonalLoop=1;jettySize=auto;html=1;entryX=0;entryY=0.5;entryDx=0;entryDy=0;" edge="1" parent="1" source="iITVqaLfuLyiolPG-tzr-28" target="iITVqaLfuLyiolPG-tzr-40">
          <mxGeometry relative="1" as="geometry" />
        </mxCell>
        <mxCell id="iITVqaLfuLyiolPG-tzr-27" style="edgeStyle=orthogonalEdgeStyle;rounded=0;orthogonalLoop=1;jettySize=auto;html=1;entryX=0.5;entryY=1;entryDx=0;entryDy=0;" edge="1" parent="1" source="iITVqaLfuLyiolPG-tzr-28" target="iITVqaLfuLyiolPG-tzr-36">
          <mxGeometry relative="1" as="geometry" />
        </mxCell>
        <mxCell id="iITVqaLfuLyiolPG-tzr-28" value="Usuario" style="shape=umlActor;verticalLabelPosition=bottom;verticalAlign=top;html=1;outlineConnect=0;" vertex="1" parent="1">
          <mxGeometry x="205" y="277" width="30" height="60" as="geometry" />
        </mxCell>
        <mxCell id="iITVqaLfuLyiolPG-tzr-29" value="&lt;strong data-end=&quot;168&quot; data-start=&quot;147&quot;&gt;Cadastrar Usuário&lt;/strong&gt;" style="ellipse;whiteSpace=wrap;html=1;" vertex="1" parent="1">
          <mxGeometry x="325" y="117" width="140" height="60" as="geometry" />
        </mxCell>
        <mxCell id="iITVqaLfuLyiolPG-tzr-30" value="Fazer Login" style="ellipse;whiteSpace=wrap;html=1;" vertex="1" parent="1">
          <mxGeometry x="325" y="197" width="140" height="60" as="geometry" />
        </mxCell>
        <mxCell id="iITVqaLfuLyiolPG-tzr-31" value="&lt;strong data-end=&quot;385&quot; data-start=&quot;368&quot;&gt;Editar Perfil&lt;/strong&gt;" style="ellipse;whiteSpace=wrap;html=1;" vertex="1" parent="1">
          <mxGeometry x="325" y="277" width="140" height="60" as="geometry" />
        </mxCell>
        <mxCell id="iITVqaLfuLyiolPG-tzr-32" style="edgeStyle=orthogonalEdgeStyle;rounded=0;orthogonalLoop=1;jettySize=auto;html=1;entryX=0;entryY=0.5;entryDx=0;entryDy=0;dashed=1;" edge="1" parent="1" source="iITVqaLfuLyiolPG-tzr-33" target="iITVqaLfuLyiolPG-tzr-34">
          <mxGeometry relative="1" as="geometry">
            <Array as="points">
              <mxPoint x="505" y="515" />
              <mxPoint x="505" y="310" />
              <mxPoint x="555" y="310" />
            </Array>
          </mxGeometry>
        </mxCell>
        <mxCell id="iITVqaLfuLyiolPG-tzr-33" value="&lt;strong data-end=&quot;483&quot; data-start=&quot;469&quot;&gt;Criar Post&lt;/strong&gt;" style="ellipse;whiteSpace=wrap;html=1;" vertex="1" parent="1">
          <mxGeometry x="150" y="480" width="140" height="70" as="geometry" />
        </mxCell>
        <mxCell id="iITVqaLfuLyiolPG-tzr-34" value="&lt;strong data-end=&quot;1151&quot; data-start=&quot;1113&quot;&gt;Relacionar Postagens e Comentários&lt;/strong&gt;" style="ellipse;whiteSpace=wrap;html=1;" vertex="1" parent="1">
          <mxGeometry x="555" y="277" width="180" height="70" as="geometry" />
        </mxCell>
        <mxCell id="iITVqaLfuLyiolPG-tzr-35" style="edgeStyle=orthogonalEdgeStyle;rounded=0;orthogonalLoop=1;jettySize=auto;html=1;entryX=0;entryY=0.5;entryDx=0;entryDy=0;dashed=1;" edge="1" parent="1" source="iITVqaLfuLyiolPG-tzr-36" target="iITVqaLfuLyiolPG-tzr-34">
          <mxGeometry relative="1" as="geometry">
            <Array as="points">
              <mxPoint x="505" y="105" />
              <mxPoint x="505" y="310" />
              <mxPoint x="555" y="310" />
            </Array>
          </mxGeometry>
        </mxCell>
        <mxCell id="iITVqaLfuLyiolPG-tzr-36" value="&lt;strong data-end=&quot;745&quot; data-start=&quot;728&quot;&gt;Comentar Post&lt;/strong&gt;" style="ellipse;whiteSpace=wrap;html=1;" vertex="1" parent="1">
          <mxGeometry x="150" y="70" width="140" height="70" as="geometry" />
        </mxCell>
        <mxCell id="iITVqaLfuLyiolPG-tzr-37" value="&amp;lt;extends&amp;gt;" style="text;html=1;align=center;verticalAlign=middle;resizable=0;points=[];autosize=1;strokeColor=none;fillColor=none;" vertex="1" parent="1">
          <mxGeometry x="355" y="70" width="80" height="30" as="geometry" />
        </mxCell>
        <mxCell id="iITVqaLfuLyiolPG-tzr-38" value="&amp;lt;extends&amp;gt;" style="text;html=1;align=center;verticalAlign=middle;resizable=0;points=[];autosize=1;strokeColor=none;fillColor=none;" vertex="1" parent="1">
          <mxGeometry x="365" y="520" width="80" height="30" as="geometry" />
        </mxCell>
        <mxCell id="iITVqaLfuLyiolPG-tzr-39" value="&lt;b&gt;Visualizar Posts&lt;/b&gt;" style="ellipse;whiteSpace=wrap;html=1;" vertex="1" parent="1">
          <mxGeometry x="325" y="359" width="140" height="60" as="geometry" />
        </mxCell>
        <mxCell id="iITVqaLfuLyiolPG-tzr-40" value="&lt;b&gt;Pesquisar Posts&lt;/b&gt;" style="ellipse;whiteSpace=wrap;html=1;" vertex="1" parent="1">
          <mxGeometry x="325" y="440" width="140" height="60" as="geometry" />
        </mxCell>
      </root>
    </mxGraphModel>
  </diagram>
</mxfile>
